HIERARCHY
ROOT Hips
{
	OFFSET	0.00	0.00	0.00
	CHANNELS 6 Xposition Yposition Zposition Zrotation Xrotation Yrotation
	JOINT Spine
	{
		OFFSET	 0.00	0.01	 0.00
		CHANNELS 3 Zrotation Xrotation Yrotation
		JOINT Spine1
		{
			OFFSET	 0.00	 2.45913012437421	 0.00
			CHANNELS 3 Zrotation Xrotation Yrotation
            JOINT Neck
            {
                OFFSET	 0.00	 2.48462964506057	 0.00
                CHANNELS 3 Zrotation Xrotation Yrotation
                JOINT Head
                {
                    OFFSET	 0.00	 0.927524780924562	 0.00
                    CHANNELS 3 Zrotation Xrotation Yrotation
                    End Site 
                    {
                        OFFSET	 0.00	 1.14999962169752	 0.00
                    }
                }
            }
			JOINT LeftShoulder
			{
				OFFSET	 0.00	 2.48462964506057	 0.00
				CHANNELS 3 Zrotation Xrotation Yrotation
				JOINT LeftUpArm
				{
					OFFSET	 0.00	 1.24881979654096	 0.00
					CHANNELS 3 Zrotation Xrotation Yrotation
					JOINT LeftForeArm
					{
						OFFSET	 0.00	2.59758046908119	 0.00
						CHANNELS 3 Zrotation Xrotation Yrotation
						JOINT LeftHand
						{
							OFFSET	 0.00	2.45542024364365	 0.00
							CHANNELS 3 Zrotation Xrotation Yrotation
							JOINT LeftHandThumb 
							{
								OFFSET	 0.00	0.00	 0.00
								CHANNELS 3 Zrotation Xrotation Yrotation
								End Site
								{
									OFFSET	 0.00	0.00	1.00000003353624
								}
							}
							JOINT L_Wrist_End 
							{
								OFFSET	 0.00	0.99999967115358	 0.00
								CHANNELS 3 Zrotation Xrotation Yrotation
								End Site 
								{
									OFFSET	 0.00	 0.00	 0.00
								}
							}
						}
					}
				}
			}
			JOINT RightShoulder
			{
				OFFSET	 0.00	 2.48462964506057	 0.00
				CHANNELS 3 Zrotation Xrotation Yrotation
				JOINT RightUpArm
				{
					OFFSET	 0.00	 1.24881979654096	 0.00
					CHANNELS 3 Zrotation Xrotation Yrotation
					JOINT RightForeArm
					{
						OFFSET	 0.00	2.59758046908119	 0.00
						CHANNELS 3 Zrotation Xrotation Yrotation
						JOINT RightHand
						{
							OFFSET	 0.00	2.45542024364365	 0.00
							CHANNELS 3 Zrotation Xrotation Yrotation
							JOINT RightHandThumb 
							{
								OFFSET	 0.00	0.00	 0.00
								CHANNELS 3 Zrotation Xrotation Yrotation
								End Site
								{
									OFFSET	 0.00	0.00	1.00000003353624
								}
							}
							JOINT R_Wrist_End 
							{
								OFFSET	 0.00	0.99999967115358	 0.00
								CHANNELS 3 Zrotation Xrotation Yrotation
								End Site 
								{
									OFFSET	 0.00	 0.00	 0.00
								}
							}
						}
					}
				}
			}
		}
	}
	JOINT LeftUpLeg
	{
		OFFSET	 1.2719394002717	 0.00	 0.00
		CHANNELS 3 Zrotation Xrotation Yrotation
		JOINT LeftLowLeg
		{
			OFFSET	 0.00	-4.3429100912261	 0.00
			CHANNELS 3 Zrotation Xrotation Yrotation
			JOINT LeftFoot
			{
				OFFSET	 0.00	-4.48767017425826	 0.00
				CHANNELS 3 Zrotation Xrotation Yrotation
				JOINT LeftToeBase
                {
                    OFFSET	 0.00	0.00	 1.51507020887566
                    CHANNELS 3 Zrotation Xrotation Yrotation
                    End Site 
                    {
                        OFFSET	 0.00	0.00	 0.75000010571191
                    }
                }
			}
		}
	}
	JOINT RightUpLeg
	{
		OFFSET	 -1.2719393604653	 0.00	 0.00
		CHANNELS 3 Zrotation Xrotation Yrotation
		JOINT RightLowLeg
		{
			OFFSET	 0.00	-4.3429100912261	 0.00
			CHANNELS 3 Zrotation Xrotation Yrotation
			JOINT RightFoot
			{
				OFFSET	 0.00	-4.48767017425826	 0.00
				CHANNELS 3 Zrotation Xrotation Yrotation
				JOINT RightToeBase
                {
                    OFFSET	 0.00	0.00	 1.51507020887566
                    CHANNELS 3 Zrotation Xrotation Yrotation
                    End Site 
                    {
                        OFFSET	 0.00	0.00	 0.749999965609858
                    }
                }   
			}
		}
	}
}
MOTION 
Frames:	15 
Frame Time: 0.02 
 -1.0333999633789062 7.899140014648437 10.47739990234375 -88.3328 84.8869 75.1779 1.56018 -21.1771 -5.67833 5.78483 36.8469 -0.466737 7.64513 35.0939 -10.7513 18.0586 -58.529 0.894098 -122.946 3.23665 -9.91496 -35.8712 -2.10465 38.8805 0.0 31.3323 0.0 8.65448 -6.50678 -2.14818 0.0 0.0 0.0 0.0 0.0 0.0 115.7951 1.5023 4.71656 36.8457 6.6509 -21.2377 0.0 25.0505 0.0 -5.25642 -2.41635 5.26498 0.0 0.0 0.0 0.0 0.0 0.0 5.61538 7.49898 18.3683 0.0 6.28854 0.0 -7.23477 5.2965 6.64148 0.0 -9.50886 0.0 2.66586 5.13942 20.2991 0.0 6.42171 0.0 20.446 9.28281 -21.9051 0.0 -9.474541 0.0 
  -0.9893900299072266 7.90781005859375 10.476500244140626 -88.1973 84.8027 74.4051 1.28396 -20.6655 -6.11921 6.2826 36.7869 -0.560281 8.32589 35.3925 -11.835 17.8575 -58.7538 0.366118 -123.1016 3.08833 -10.1556 -35.7471 -2.3458 39.5255 0.0 31.6499 0.0 8.36571 -6.33469 -2.12776 0.0 0.0 0.0 0.0 0.0 0.0 115.747604 1.22677 3.99219 36.3457 7.52658 -20.6263 0.0 25.5627 0.0 -5.67886 -2.10331 5.57606 0.0 0.0 0.0 0.0 0.0 0.0 5.32951 7.77268 18.8299 0.0 5.9235 0.0 -7.13944 5.2478504 6.72246 0.0 -9.4171295 0.0 2.56626 4.72009 20.539 0.0 6.98398 0.0 20.4356 9.373711 -21.6434 0.0 -9.50425 0.0 
  -0.9457489776611329 7.921069946289062 10.47489990234375 -88.9913 84.7529 74.5872 0.725557 -20.0921 -6.81894 7.1566 36.606 -0.518918 8.7219 35.7458 -12.7408 17.3529 -59.0872 -0.49259 -123.539 3.01552 -9.87045 -35.4644 -2.2355 40.0286 0.0 31.9127 0.0 8.24619 -6.27947 -1.846 0.0 0.0 0.0 0.0 0.0 0.0 115.4404 0.96959 3.92882 36.0579 7.68063 -20.0065 0.0 26.4185 0.0 -6.00905 -1.92103 5.53329 0.0 0.0 0.0 0.0 0.0 0.0 5.05063 7.90633 19.2442 0.0 5.57821 0.0 -7.05943 5.21251 6.81051 0.0 -9.3307705 0.0 2.49579 4.12089 20.8395 0.0 7.67459 0.0 20.4979 9.400761 -21.4249 0.0 -9.585279 0.0 
  -0.90268798828125 7.9355401611328125 10.474599609375 -91.0079 84.7584 75.9878 -0.0636384 -19.5877 -7.71571 8.30068 36.3285 -0.361138 8.81635 36.2347 -13.3278 16.6058 -59.4669 -1.50023 -124.1913 3.01933 -9.39098 -35.0906 -2.04871 40.2468 0.0 32.0272 0.0 7.86512 -6.06779 -1.84145 0.0 0.0 0.0 0.0 0.0 0.0 114.8902 0.742408 3.93845 35.9742 7.62203 -19.3775 0.0 27.2212 0.0 -6.46172 -1.83148 5.8359 0.0 0.0 0.0 0.0 0.0 0.0 4.7541 7.9147 19.7483 0.0 5.21005 0.0 -7.05352 5.23958 6.79233 0.0 -9.23812 0.0 2.44068 3.34166 21.2207 0.0 8.50046 0.0 20.5706 9.35582 -21.2299 0.0 -9.606791 0.0 
  -0.8610389709472657 7.953489990234375 10.4747998046875 -92.8788 84.7927 77.2625 -0.800608 -19.1589 -8.51181 9.15076 36.2565 -0.330595 8.75944 36.5322 -13.6256 15.9441 -59.6295 -2.37821 -124.615204 2.96719 -9.18211 -34.7146 -1.88478 40.3917 0.0 32.0763 0.0 7.5965 -5.8577 -1.79069 0.0 0.0 0.0 0.0 0.0 0.0 114.415 0.590337 3.89604 36.0705 7.6725 -18.9078 0.0 28.0684 0.0 -7.07696 -1.71442 6.3554 0.0 0.0 0.0 0.0 0.0 0.0 4.43397 7.90708 20.0531 0.0 4.83063 0.0 -7.07223 5.31044 6.91729 0.0 -9.16832 0.0 2.39688 2.49707 21.5917 0.0 9.42105 0.0 20.529 9.35583 -21.0696 0.0 -9.6959 0.0 
  -0.8202919769287109 7.973389892578125 10.4743994140625 -95.3375 84.8586 79.0618 -1.10058 -19.0723 -8.65399 9.10625 36.5759 -0.382475 9.48946 36.1656 -14.5416 15.8921 -59.3386 -2.26429 -124.2174 3.09815 -9.33419 -34.6402 -1.81534 40.4313 0.0 32.0386 0.0 7.55352 -5.94148 -1.19939 0.0 0.0 0.0 0.0 0.0 0.0 114.2327 0.520633 4.17179 36.5338 7.57621 -18.6021 0.0 28.855 0.0 -7.59714 -1.56575 7.1137 0.0 0.0 0.0 0.0 0.0 0.0 4.09249 7.84519 20.5537 0.0 4.44933 0.0 -7.05115 5.4103804 6.92145 0.0 -9.12959 0.0 2.3782 1.45964 21.9639 0.0 10.5949 0.0 20.568 9.29059 -20.7646 0.0 -9.8339 0.0 
  -0.7809519958496094 7.993280029296875 10.471500244140625 -98.7036 84.9676 81.6876 -0.806863 -18.9954 -8.12166 7.86192 36.5308 -0.558362 11.1329 36.1521 -16.0135 16.5886 -59.1957 -0.778101 -123.4198 3.03817 -9.65901 -34.2411 -1.83092 40.5206 0.0 31.8271 0.0 7.49238 -5.75296 1.08348 0.0 0.0 0.0 0.0 0.0 0.0 114.922195 0.628916 4.22494 36.7992 7.39144 -18.4854 0.0 29.5466 0.0 -7.97023 -1.45239 8.05588 0.0 0.0 0.0 0.0 0.0 0.0 3.71156 7.7052 21.2732 0.0 4.08239 0.0 -6.98289 5.4893103 6.82436 0.0 -9.083139 0.0 2.37338 0.195068 22.23 0.0 12.031 0.0 20.6576 9.19767 -20.2537 0.0 -10.02338 0.0 
  -0.7455400085449219 8.013350219726563 10.4675 -103.003 85.0895 85.2034 -0.776268 -18.7705 -7.74083 6.94995 36.0065 -0.380674 12.6115 36.6306 -17.3482 17.1488 -59.2838 0.282624 -122.9543 3.12963 -9.50101 -33.7111 -1.74766 40.411 0.0 31.3699 0.0 7.57856 -5.68512 0.427169 0.0 0.0 0.0 0.0 0.0 0.0 115.4952 0.439314 4.34078 37.046 7.0242 -18.7109 0.0 30.0769 0.0 -8.16491 -1.26235 8.41733 0.0 0.0 0.0 0.0 0.0 0.0 3.33098 7.51155 22.0187 0.0 3.69266 0.0 -6.99039 5.56561 6.69442 0.0 -9.01589 0.0 2.42267 -1.24503 22.4848 0.0 13.6472 0.0 20.7789 9.14562 -19.718 0.0 -10.32915 0.0 
  -0.7150489807128906 8.035919799804688 10.464599609375 -107.73 85.1639 89.0592 -0.917276 -18.6083 -7.46932 6.24102 35.5921 -0.128521 13.8889 36.9536 -18.5118 17.6577 -59.3064 1.1609 -122.6001 3.24869 -9.51262 -33.1246 -1.7098 40.6908 0.0 30.6993 0.0 8.38298 -5.21804 0.673454 0.0 0.0 0.0 0.0 0.0 0.0 115.8663 0.242845 4.46133 37.4415 6.70667 -19.1016 0.0 30.4543 0.0 -8.21087 -1.25186 8.75152 0.0 0.0 0.0 0.0 0.0 0.0 2.99726 7.3022 22.8406 0.0 3.2972 0.0 -7.0693 5.6462 6.55551 0.0 -8.92359 0.0 2.57768 -2.84182 22.6879 0.0 15.4776 0.0 20.898 9.254749 -19.0578 0.0 -10.75883 0.0 
  -0.6905609893798829 8.056270141601562 10.4618994140625 -112.784 85.1505 93.2157 -0.895588 -18.6668 -7.05083 5.17466 35.3787 -0.0583911 15.3053 37.1246 -19.6917 18.4334 -59.1779 2.39251 -121.952805 3.20024 -9.53159 -32.7187 -1.51911 39.6823 0.0 30.0093 0.0 7.83558 -5.55197 0.548518 0.0 0.0 0.0 0.0 0.0 0.0 116.3754 0.27956 4.5728 37.9305 6.35844 -19.7256 0.0 30.6476 0.0 -8.1333 -1.08582 9.48897 0.0 0.0 0.0 0.0 0.0 0.0 2.72996 7.15423 23.3971 0.0 2.78576 0.0 -7.11536 5.7681303 6.65182 0.0 -8.951759 0.0 2.85669 -4.44668 22.8504 0.0 17.2791 0.0 21.0309 9.47554 -18.4991 0.0 -11.27682 0.0 
  -0.6720939636230469 8.07614013671875 10.4606005859375 -117.041 85.0311 96.529 -0.74376 -18.7674 -6.44903 3.88593 35.2825 0.0159986 16.845 37.2494 -20.8487 19.4949 -58.9851 3.99194 -121.2469 3.15542 -9.7518 -32.1472 -1.35704 39.0352 0.0 29.1985 0.0 7.77975 -5.60116 0.34929 0.0 0.0 0.0 0.0 0.0 0.0 117.0755 0.276959 4.678 38.3994 6.06495 -20.4727 0.0 30.6934 0.0 -7.95323 -1.11222 8.88357 0.0 0.0 0.0 0.0 0.0 0.0 2.56089 7.11473 23.9574 0.0 2.19748 0.0 -7.28112 5.8595104 6.74795 0.0 -8.87192 0.0 3.25444 -6.00246 22.9333 0.0 19.0699 0.0 21.1447 9.92473 -17.8756 0.0 -11.90708 0.0 
  -0.6599829864501953 8.087509765625 10.4606005859375 -120.041 84.8303 98.8391 -0.485205 -18.9574 -5.77799 2.4155 35.2828 -0.0226314 18.5455 37.2941 -22.0832 20.6971 -58.6232 5.76219 -120.4668 3.05726 -9.70596 -31.535 -0.920999 38.348 0.0 28.2088 0.0 8.12488 -5.52333 0.242585 0.0 0.0 0.0 0.0 0.0 0.0 117.9685 0.179888 4.8123 38.8521 5.76111 -21.2933 0.0 30.5538 0.0 -7.64648 -0.895648 8.62079 0.0 0.0 0.0 0.0 0.0 0.0 2.48569 7.23173 23.9902 0.0 1.47163 0.0 -7.48335 5.9680405 7.11566 0.0 -8.81114 0.0 3.72957 -7.30111 23.024 0.0 20.6694 0.0 21.447 10.373859 -17.4835 0.0 -12.5575695 0.0 
  -0.6506449890136718 8.0977099609375 10.460899658203125 -122.221 84.5862 100.169 -0.0136864 -19.2246 -4.82217 0.685263 35.4611 0.00745058 20.3284 37.0847 -23.4011 21.8334 -57.9659 7.56978 -119.4842 2.92743 -9.78629 -31.0673 -0.353945 37.0426 0.0 27.2026 0.0 7.61326 -5.94921 0.312015 0.0 0.0 0.0 0.0 0.0 0.0 118.894196 0.0900832 5.04377 39.4209 5.40931 -22.1374 0.0 30.2625 0.0 -7.25481 -0.714102 7.99933 0.0 0.0 0.0 0.0 0.0 0.0 2.40568 7.54313 23.8273 0.0 0.528813 0.0 -7.75576 6.11658 7.82263 0.0 -8.75407 0.0 4.28014 -8.60168 23.189 0.0 22.3276 0.0 21.8818 10.9627495 -16.9319 0.0 -13.31276 0.0 
  -0.6450890350341797 8.104039916992187 10.4625 -123.467 84.2849 100.687 1.01194 -19.4843 -3.28708 -1.87026 35.5764 -0.066692 22.9428 37.0135 -25.3795 23.2855 -57.2359 9.91083 -118.0264 3.18009 -10.6892 -30.4435 -0.700032 36.8265 0.0 26.1783 0.0 8.29323 -5.90921 0.238003 0.0 0.0 0.0 0.0 0.0 0.0 120.2912 -0.0147432 5.40912 40.087 4.80248 -22.7447 0.0 29.851 0.0 -6.54645 -0.7555 7.78283 0.0 0.0 0.0 0.0 0.0 0.0 2.44091 7.87277 23.8183 0.0 -0.295147 0.0 -7.98552 6.25004 8.28739 0.0 -8.709129 0.0 4.90488 -9.70716 23.4868 0.0 23.7958 0.0 22.5249 11.62169 -16.5997 0.0 -14.261321 0.0 
  -0.6416500091552735 8.10916015625 10.465 -124.932 83.9314 101.405 1.88142 -19.7138 -2.01042 -4.01548 35.6006 -0.162034 25.0062 37.0035 -26.8359 24.3489 -56.5518 11.7428 -116.8891 2.92711 -10.3538 -29.9519 0.209573 35.296 0.0 24.8481 0.0 7.98581 -6.04082 0.293164 0.0 0.0 0.0 0.0 0.0 0.0 121.4055 -0.0436802 5.37287 40.6889 4.41436 -23.6024 0.0 29.1427 0.0 -6.53464 -0.724933 7.61589 0.0 0.0 0.0 0.0 0.0 0.0 2.53123 8.13995 23.7925 0.0 -1.04828 0.0 -8.18533 6.3265495 8.85014 0.0 -8.597731 0.0 5.51754 -10.8042 23.4053 0.0 25.1077 0.0 23.2646 12.36916 -16.0586 0.0 -15.313232 0.0 
